<?xml version="1.0" encoding="utf-8"?><!DOCTYPE svg PUBLIC "-//W3C//DTD SVG 1.1//EN" "http://www.w3.org/Graphics/SVG/1.1/DTD/svg11.dtd"><svg version="1.1" xmlns="http://www.w3.org/2000/svg" xmlns:xlink="http://www.w3.org/1999/xlink" x="0px" y="0px" viewBox="0 0 49.722 125" enable-background="new 0 0 49.722 100" xml:space="preserve"><polygon points="1.344,18.592 1.102,60.774 4.787,60.589 5.891,79.742 3.866,96.685 5.707,96.498 4.418,100 14.548,100 
	15.468,99.079 12.52,98.34 9.759,96.314 12.707,95.947 14.177,79.558 13.073,62.246 23.018,77.533 24.495,92.816 26.515,92.266 
	26.334,94.105 34.437,93.187 34.805,91.345 31.49,91.345 29.833,90.057 31.49,89.136 28.729,74.216 20.807,59.115 19.705,55.064 
	17.125,32.412 35.54,28.546 45.854,23.018 45.301,21.546 46.958,21.546 48.247,15.654 49.722,15.285 49.54,13.812 47.512,13.997 
	48.066,12.339 46.589,12.156 46.221,13.629 45.854,14.732 45.119,13.629 45.67,11.417 44.198,11.417 44.012,13.997 44.381,15.469 
	43.829,18.049 42.54,18.417 42.168,17.311 34.805,21.731 22.465,23.389 32.41,19.706 37.016,16.759 36.095,15.285 37.381,14.55 
	38.122,12.524 39.777,9.577 38.3,8.84 37.569,10.129 36.646,10.867 35.909,8.104 36.832,6.077 38.3,5.708 38.3,4.053 36.646,4.789 
	34.99,5.894 35.359,4.053 35.359,2.579 33.883,3.683 33.699,5.526 33.514,6.446 33.514,10.129 33.699,12.156 32.225,12.708 
	31.122,11.603 27.624,13.997 14.177,17.497 12.152,16.39 11.968,13.997 14.916,11.787 14.177,9.024 11.968,9.577 11.232,11.234 
	10.311,11.234 10.495,9.024 12.52,6.446 11.416,4.973 12.152,3.683 9.206,2.21 8.839,0.736 6.998,0 0.369,0.921 0,5.526 
	1.841,12.339 5.891,14.365 4.787,16.39 " fill="#FFF"/></svg>